<svg xmlns="http://www.w3.org/2000/svg" xmlns:xlink="http://www.w3.org/1999/xlink" version="1.1" viewBox="0 0 200 200" height="" xmlns:bx="https://boxy-svg.com">
  <desc></desc>
  <defs>
    <bx:guide x="61.185" y="135.884" angle="90"></bx:guide>
    <bx:export>
      <bx:file format="png"></bx:file>
    </bx:export>
    <radialGradient gradientUnits="userSpaceOnUse" cx="179.794" cy="113.778" r="41.904" id="gradient-0" gradientTransform="matrix(0.605223, 0.125328, -0.18702, 0.90313, 92.257368, -11.511566)">
      <stop offset="0" style="stop-color: rgb(255, 95, 27)"></stop>
      <stop offset="1" style=""></stop>
    </radialGradient>
    <linearGradient gradientUnits="userSpaceOnUse" x1="179.794" y1="93.222" x2="179.794" y2="134.334" id="gradient-1" gradientTransform="matrix(0, -0.007499, 0.007499, 0, 96.902161, 114.298955)">
      <stop offset="0" style="stop-color: rgb(255, 95, 27)"></stop>
      <stop offset="1" style=""></stop>
    </linearGradient>
  </defs>
  <g transform="matrix(2.194444, 0, 0, 2.194444, -112.893402, -147.967789)" style="">
    <path style="stroke: none; stroke-width: 1; stroke-dasharray: none; stroke-linecap: butt; stroke-dashoffset: 0; stroke-linejoin: miter; stroke-miterlimit: 4; fill-rule: nonzero; opacity: 1; fill: url(#gradient-1);" d="M 137.263 105.042 C 136.255 102.594 134.743 100.362 132.871 98.49 C 130.999 96.69 128.767 95.106 126.391 94.17 C 123.727 93.09 121.135 92.442 118.399 92.442 C 115.519 92.442 112.927 93.09 110.407 94.17 C 107.959 95.106 105.727 96.69 103.855 98.49 C 102.847 99.498 101.911 100.65 101.119 101.802 L 108.823 109.578 L 110.551 107.274 C 112.351 104.898 115.159 103.242 118.399 103.242 C 123.655 103.242 128.119 107.634 128.119 113.034 C 128.119 118.362 123.655 122.754 118.399 122.754 C 115.807 122.754 113.431 121.674 111.631 120.09 L 96.007 104.394 L 90.391 98.706 L 90.175 98.49 C 88.231 96.69 85.999 95.106 83.623 94.17 C 81.031 93.09 78.439 92.442 75.703 92.442 C 72.823 92.442 70.159 93.09 67.711 94.17 C 65.263 95.106 62.959 96.69 61.087 98.49 C 59.287 100.362 57.703 102.666 56.767 105.042 C 55.687 107.562 55.111 110.226 55.111 113.034 C 55.111 115.842 55.687 118.434 56.767 120.954 C 57.703 123.402 59.287 125.634 61.087 127.578 C 62.959 129.378 65.263 130.962 67.711 131.97 C 70.159 133.05 72.823 133.554 75.703 133.554 C 78.439 133.554 81.031 133.05 83.623 131.97 C 86.143 130.962 88.231 129.378 90.175 127.578 C 91.183 126.57 92.047 125.418 92.767 124.266 L 85.135 116.85 L 83.263 119.082 L 83.263 119.01 C 81.535 121.314 78.727 122.754 75.703 122.754 C 70.231 122.754 65.911 118.362 65.911 113.034 C 65.911 107.634 70.231 103.242 75.703 103.242 C 78.295 103.242 80.671 104.322 82.399 106.05 L 97.951 121.602 L 103.135 126.786 C 103.351 127.002 103.567 127.362 103.855 127.578 C 105.727 129.378 107.959 130.962 110.407 131.97 C 112.927 133.05 115.519 133.554 118.399 133.554 C 121.135 133.554 123.727 133.05 126.391 131.97 C 128.839 130.962 130.999 129.378 132.871 127.578 C 134.743 125.634 136.255 123.402 137.263 120.954 C 138.343 118.434 138.919 115.842 138.919 113.034 C 138.919 110.226 138.343 107.562 137.263 105.042 Z" stroke-linecap="round"></path>
  </g>
</svg>